<?xml version="1.0" standalone="no"?>
<!DOCTYPE svg PUBLIC "-//W3C//DTD SVG 20010904//EN"
 "http://www.w3.org/TR/2001/REC-SVG-20010904/DTD/svg10.dtd">
<svg version="1.0" xmlns="http://www.w3.org/2000/svg"
 width="2000.000000pt" height="2000.000000pt" viewBox="0 0 2000.000000 2000.000000"
 preserveAspectRatio="xMidYMid meet">

<g transform="translate(0.000000,2000.000000) scale(0.100000,-0.100000)"
fill="#000000" stroke="none">
<path d="M10762 16869 c-213 -42 -356 -308 -392 -729 -9 -102 0 -326 15 -367
2 -6 -2 -16 -9 -22 -9 -8 -34 13 -100 85 -195 210 -401 351 -625 424 -318 104
-555 44 -632 -159 -34 -89 -45 -236 -31 -419 18 -248 63 -468 145 -711 l43
-128 -86 -11 c-263 -35 -487 -188 -605 -413 -95 -182 -77 -326 64 -501 110
-137 385 -381 634 -563 37 -27 67 -52 67 -55 0 -4 -21 -33 -46 -66 -59 -74
-127 -215 -156 -319 -19 -68 -22 -105 -22 -250 1 -151 3 -181 26 -266 69 -255
204 -490 400 -695 l78 -81 -24 -54 c-28 -64 -81 -228 -91 -282 -4 -20 -10 -39
-14 -42 -4 -2 -30 27 -59 64 -72 95 -260 274 -367 350 -98 69 -293 168 -394
200 -207 67 -356 47 -455 -59 -80 -85 -110 -173 -122 -350 -7 -118 8 -360 35
-544 10 -67 18 -122 17 -123 -1 -1 -26 14 -56 33 -91 58 -245 133 -342 165
-191 64 -397 86 -505 54 -68 -20 -144 -89 -180 -163 -26 -52 -28 -66 -28 -172
1 -104 4 -124 33 -210 18 -52 50 -126 70 -165 l37 -70 -200 -1 c-218 0 -291
-12 -386 -60 -210 -106 -265 -349 -145 -644 l24 -61 -37 8 c-69 15 -163 8
-207 -15 -91 -47 -149 -145 -161 -275 -3 -37 -7 -67 -9 -67 -2 0 -22 13 -46
29 -121 80 -214 68 -314 -42 -110 -120 -194 -357 -194 -548 0 -33 -4 -59 -10
-59 -24 0 -473 135 -648 195 -381 130 -660 242 -1336 537 -646 281 -852 363
-1100 434 -282 81 -518 108 -589 67 -71 -42 -61 -103 31 -193 77 -76 193 -153
562 -380 460 -283 718 -460 937 -643 89 -75 290 -281 568 -582 745 -806 1095
-1123 1605 -1457 516 -338 1007 -542 1545 -643 389 -73 486 -96 617 -145 53
-20 57 -23 86 -88 51 -116 102 -259 130 -370 25 -99 27 -122 27 -307 0 -235
-10 -295 -110 -695 -80 -322 -95 -401 -95 -510 0 -203 96 -351 285 -441 146
-69 301 -84 561 -54 128 15 132 15 180 -5 78 -34 247 -78 368 -97 155 -24 619
-24 792 0 253 35 432 101 538 198 95 86 149 229 150 394 1 167 -48 309 -162
467 -110 152 -237 380 -307 549 -34 83 -95 249 -95 259 0 5 26 11 58 15 403
43 658 99 979 213 103 37 113 39 126 24 46 -55 99 -180 122 -292 38 -181 28
-374 -32 -599 -64 -240 -50 -345 62 -457 89 -90 205 -131 445 -158 299 -34
471 -39 1105 -32 634 6 795 14 900 41 243 64 422 289 385 486 -16 84 -58 146
-197 290 -202 210 -309 365 -439 634 -146 303 -241 622 -314 1057 -23 143 -60
419 -60 457 0 5 30 -11 68 -36 144 -98 286 -144 447 -144 222 -1 351 74 404
236 46 138 66 372 58 670 -29 1069 -451 2059 -1208 2830 l-108 110 -50 195
c-93 361 -105 432 -105 635 -1 202 9 255 68 382 117 247 358 457 731 638 150
73 208 94 579 211 464 147 681 235 857 349 146 94 273 254 294 369 6 32 13 40
44 52 169 66 258 196 306 445 75 399 -34 792 -294 1050 -129 128 -286 218
-452 260 -99 24 -334 36 -447 22 -69 -9 -73 -8 -77 11 -3 12 -16 75 -31 141
-82 376 -218 612 -430 747 -191 122 -350 136 -615 53 -13 -4 -25 23 -63 137
-91 278 -209 481 -370 635 -217 208 -422 246 -622 114 -65 -43 -167 -145 -263
-263 l-63 -77 -72 60 c-96 81 -172 131 -291 189 -121 60 -343 134 -461 155
-95 16 -91 16 -152 4z m1651 -116 c166 -65 324 -236 443 -478 77 -158 151
-374 132 -387 -21 -13 -138 -9 -205 7 -33 8 -140 46 -237 85 -195 78 -357 129
-486 155 -120 23 -118 22 -141 68 -12 23 -41 72 -66 109 -27 41 -41 73 -37 80
26 44 215 256 257 289 121 96 224 118 340 72z m-1428 -9 c190 -49 365 -124
512 -220 76 -50 231 -204 277 -276 20 -31 36 -60 36 -64 0 -4 -53 -4 -117 0
-392 22 -792 -80 -1113 -282 -80 -51 -96 -58 -102 -44 -4 10 -7 81 -7 159 -2
350 113 673 262 738 49 22 143 18 252 -11z m-1487 -550 c148 -31 289 -91 432
-187 74 -49 350 -313 350 -335 0 -6 -25 -39 -56 -74 -143 -163 -326 -480 -393
-683 -34 -102 -61 -227 -61 -280 0 -19 -4 -35 -9 -35 -5 0 -36 23 -68 50 -74
64 -228 142 -326 166 -48 11 -78 23 -82 33 -30 77 -92 267 -115 356 -84 316
-111 729 -55 862 52 124 185 168 383 127z m2359 -129 c215 -28 377 -73 650
-181 229 -91 300 -108 438 -101 77 3 137 13 200 31 226 67 330 66 475 -6 67
-33 101 -58 165 -122 117 -118 183 -243 244 -456 35 -122 66 -278 58 -286 -3
-3 -52 -15 -109 -26 -133 -25 -169 -57 -117 -103 19 -18 23 -18 122 -1 390 67
571 71 757 14 255 -79 484 -302 579 -564 93 -257 85 -597 -19 -811 -93 -189
-209 -220 -535 -143 -160 38 -184 41 -405 50 -274 12 -386 28 -524 74 -122 41
-336 135 -336 148 0 12 38 87 61 120 34 48 20 98 -28 98 -31 0 -58 -32 -103
-122 -55 -110 -73 -204 -68 -341 5 -134 19 -171 64 -175 51 -5 58 14 44 111
-11 75 -10 180 2 192 2 2 53 -17 114 -44 273 -122 395 -149 729 -162 172 -6
265 -14 330 -28 50 -11 133 -29 185 -40 52 -12 116 -23 142 -26 l47 -6 -14
-40 c-31 -86 -123 -190 -235 -264 -165 -109 -398 -203 -850 -345 -468 -146
-621 -213 -880 -385 -244 -162 -384 -313 -480 -518 -94 -201 -109 -435 -49
-742 27 -138 131 -538 239 -920 183 -648 242 -918 279 -1280 27 -253 39 -678
24 -862 l-6 -83 -101 -39 c-664 -256 -1462 -307 -2166 -138 l-95 23 2 39 c1
22 5 103 9 180 4 90 2 178 -5 245 -17 150 -26 178 -58 186 -62 16 -67 -10 -44
-244 28 -279 -29 -529 -163 -716 -45 -64 -138 -156 -156 -156 -6 0 -10 26 -10
63 -1 238 -99 621 -230 894 -60 125 -73 139 -117 120 -36 -16 -34 -45 6 -126
222 -441 295 -978 200 -1468 -43 -224 -120 -443 -232 -656 -103 -198 -252
-379 -417 -505 -92 -71 -110 -89 -110 -109 0 -17 36 -53 54 -53 23 0 172 115
257 199 l78 77 7 -55 c3 -31 14 -103 24 -161 10 -58 23 -139 30 -180 46 -300
210 -653 498 -1071 18 -26 32 -52 32 -58 0 -6 -13 -17 -29 -25 -62 -33 -119
-130 -162 -276 l-23 -80 -37 79 c-70 149 -169 225 -290 225 -136 0 -257 -99
-348 -284 l-49 -100 -22 71 c-44 134 -126 233 -224 265 -209 70 -503 -163
-580 -460 -9 -32 -18 -61 -21 -64 -12 -13 -278 -33 -361 -28 -206 14 -367 104
-432 244 -25 53 -27 66 -26 177 1 113 5 135 68 385 127 501 158 715 136 937
-22 227 -79 397 -266 799 -169 365 -228 535 -255 739 -13 101 -7 249 14 337
12 49 12 60 0 78 -16 23 -55 26 -76 6 -44 -44 -59 -383 -24 -546 35 -164 98
-335 221 -604 l27 -59 -23 7 c-134 38 -250 64 -454 101 -133 25 -295 58 -360
75 -512 132 -1037 395 -1539 772 -394 295 -640 529 -1291 1228 -182 195 -375
400 -430 455 -228 230 -503 429 -1114 805 -327 201 -470 296 -535 354 l-50 45
61 1 c116 0 350 -50 569 -122 194 -64 459 -172 965 -393 864 -377 1275 -533
1811 -685 362 -103 601 -139 821 -125 l108 7 -26 -57 c-88 -192 -34 -407 122
-485 215 -107 499 -35 623 158 54 85 73 155 69 257 -3 63 -10 104 -25 137
l-21 47 67 20 c116 35 195 111 226 214 19 64 18 90 -3 153 l-18 51 111 100
c61 55 231 226 377 379 304 320 496 509 618 611 591 493 1371 713 2135 602 77
-11 141 -22 144 -24 2 -3 -52 -116 -121 -252 -196 -389 -260 -603 -261 -878
-1 -192 26 -320 96 -460 125 -252 381 -437 706 -511 196 -44 498 -50 755 -15
l60 8 82 -61 c204 -150 263 -168 384 -113 134 61 333 349 422 610 73 214 23
435 -132 587 -152 150 -365 193 -620 125 -51 -14 -94 -24 -95 -23 -1 2 -12 44
-24 93 -38 154 -128 324 -243 457 -53 61 -179 168 -230 194 -27 14 -32 14 -54
-1 -29 -18 -32 -59 -6 -80 9 -7 45 -34 79 -60 192 -143 333 -380 373 -629 19
-114 34 -123 136 -82 104 42 205 59 320 54 94 -4 110 -8 177 -41 67 -33 167
-120 167 -144 0 -5 -14 -17 -30 -26 -48 -29 -73 -89 -67 -161 3 -34 8 -69 12
-78 6 -15 2 -18 -21 -18 -125 0 -203 -89 -191 -217 3 -32 8 -68 12 -80 6 -20
4 -23 -21 -23 -125 0 -216 -103 -218 -247 -1 -37 -5 -59 -11 -55 -5 3 -46 33
-89 66 l-80 60 -105 -13 c-164 -20 -455 -26 -568 -11 -373 47 -664 225 -788
484 -69 144 -80 202 -80 406 1 153 4 189 27 285 50 211 123 379 343 789 214
399 267 532 281 700 29 364 -218 788 -556 954 -88 43 -101 47 -188 50 -75 4
-105 0 -160 -17 -140 -45 -264 -158 -368 -335 l-51 -87 -65 73 c-394 443 -493
927 -270 1313 50 86 181 212 268 258 40 20 74 37 77 37 3 0 8 -19 12 -42 4
-24 22 -93 41 -155 148 -491 512 -933 1031 -1250 200 -122 634 -323 698 -323
11 0 26 5 33 12 16 16 15 63 0 75 -7 5 -69 32 -137 58 -770 302 -1308 805
-1511 1411 -133 400 -101 846 85 1163 34 58 35 62 35 169 0 191 42 355 145
567 99 205 250 421 381 546 202 192 510 352 789 409 200 42 466 51 672 25z
m-2585 -1335 c172 -25 354 -128 451 -255 l35 -46 -44 -87 c-101 -198 -148
-407 -148 -668 l0 -172 -55 -23 c-30 -12 -82 -41 -117 -64 l-62 -42 -134 101
c-315 236 -578 487 -638 610 -30 60 -32 72 -28 138 7 108 50 190 158 299 117
118 222 175 375 204 87 16 122 17 207 5z m964 -2688 c115 -40 247 -144 354
-278 74 -94 122 -180 162 -295 32 -91 33 -99 33 -254 0 -156 -1 -162 -33 -245
-18 -47 -63 -146 -100 -220 -54 -108 -71 -135 -87 -134 -11 1 -85 12 -165 25
-127 21 -180 23 -432 24 l-287 0 -33 90 c-17 50 -62 151 -100 225 l-67 135 25
115 c63 279 208 576 346 707 51 48 131 96 188 114 45 13 144 9 196 -9z m-1681
-283 c112 -38 271 -120 378 -196 100 -71 273 -242 348 -343 109 -146 215 -343
272 -506 l26 -71 -72 -12 c-293 -50 -637 -170 -887 -309 l-89 -50 -32 50 c-56
88 -117 160 -220 264 l-101 102 -18 108 c-48 283 -67 646 -39 774 45 212 184
272 434 189z m-1040 -843 c259 -64 485 -196 690 -401 96 -96 213 -241 230
-286 4 -10 -16 -30 -67 -65 -136 -92 -293 -228 -491 -424 l-198 -197 -37 71
c-44 85 -156 252 -256 385 -96 127 -210 300 -251 381 -46 93 -84 212 -91 289
-12 124 42 234 131 267 56 21 213 11 340 -20z m-388 -774 c28 -6 54 -37 186
-218 152 -210 227 -326 267 -417 l21 -48 -60 -67 c-33 -37 -131 -138 -218
-225 l-159 -158 -75 67 c-151 136 -317 248 -481 324 l-97 45 -31 68 c-82 183
-105 309 -76 413 40 137 129 200 316 223 79 10 353 6 407 -7z m5931 -285 c488
-608 786 -1328 878 -2122 29 -246 22 -719 -12 -875 l-6 -25 -15 30 c-57 111
-164 122 -264 28 -27 -25 -51 -44 -52 -42 -2 2 -9 24 -16 49 -40 143 -163 200
-294 136 -55 -27 -138 -106 -174 -167 -9 -16 -20 -29 -24 -29 -7 0 -19 189
-19 305 0 55 9 116 29 196 52 206 63 300 68 626 12 682 -43 1060 -272 1885
-41 147 -75 271 -75 276 1 13 149 -149 248 -271z m-6658 -484 c152 -49 368
-167 500 -272 91 -72 181 -154 178 -162 -6 -15 -184 -153 -288 -222 -110 -73
-324 -183 -375 -192 -29 -5 -31 -3 -69 80 -51 111 -125 236 -194 327 -65 87
-72 107 -74 218 -2 132 30 206 106 241 49 23 104 18 216 -18z m6159 -227 c15
-60 15 -190 0 -180 -17 10 -69 126 -69 154 0 30 25 70 44 70 8 0 19 -20 25
-44z m-6723 -47 c63 -30 196 -169 273 -283 70 -105 171 -294 171 -319 0 -23
-183 -47 -357 -47 -143 0 -218 7 -350 31 l-63 11 0 57 c0 74 25 222 48 291 54
155 150 280 216 280 11 0 39 -9 62 -21z m6646 -236 c21 -14 38 -33 38 -43 0
-18 -79 -183 -102 -214 -14 -17 -17 -16 -50 30 -55 76 -72 115 -72 170 -2 104
78 128 186 57z m-5395 -135 c13 -111 -96 -221 -233 -235 -47 -5 -57 -3 -94 25
l-41 30 113 75 c62 41 140 95 173 120 33 25 64 42 69 37 4 -4 10 -28 13 -52z
m5145 -154 c25 -8 62 -30 82 -47 l37 -32 -45 -55 c-53 -67 -124 -119 -171
-127 -33 -5 -36 -3 -50 30 -23 56 -20 147 8 188 21 32 59 59 83 59 6 0 31 -7
56 -16z m-5540 -103 c132 -84 180 -256 111 -403 -43 -91 -92 -141 -181 -186
-74 -36 -79 -37 -186 -37 -95 0 -118 3 -161 23 -27 13 -60 33 -73 45 -91 85
-94 266 -7 402 32 51 35 53 107 70 88 21 229 70 278 96 47 25 59 24 112 -10z
m6342 -883 c-25 -174 -92 -406 -169 -580 l-47 -107 -76 -29 c-269 -103 -560
-174 -887 -218 -153 -21 -607 -30 -776 -15 -252 22 -496 65 -703 124 l-111 32
-3 81 -3 80 81 63 c131 101 257 282 301 429 7 23 16 42 21 42 6 0 44 -9 86
-20 89 -22 260 -53 417 -76 153 -21 606 -30 787 -15 303 26 661 102 933 199
77 28 143 51 148 51 4 1 4 -18 1 -41z m387 -638 c10 -6 29 -30 41 -53 20 -36
23 -57 23 -154 0 -61 -3 -114 -6 -118 -18 -17 -221 67 -284 118 -28 24 -29 26
-15 53 21 39 99 124 135 146 33 20 76 23 106 8z m-442 -260 c14 -183 51 -450
90 -642 l27 -136 -25 10 c-44 16 -146 11 -195 -10 -156 -69 -241 -268 -173
-402 76 -152 307 -170 456 -35 23 21 43 36 44 34 2 -2 23 -57 46 -121 110
-301 296 -620 488 -835 43 -48 59 -73 48 -73 -43 0 -135 -73 -187 -148 -16
-24 -42 -77 -57 -119 l-28 -75 -30 53 c-66 117 -163 183 -268 183 -186 -1
-325 -190 -351 -480 l-7 -77 -431 6 c-544 7 -835 33 -980 87 -63 24 -146 94
-170 144 -25 54 -20 145 18 297 44 173 56 262 56 406 0 185 -46 373 -125 505
l-33 57 161 79 c501 247 920 581 1262 1007 87 108 228 325 287 440 l53 105 7
-53 c3 -28 11 -122 17 -207z m821 145 c19 -23 30 -85 23 -134 -6 -40 -10 -45
-50 -63 -55 -24 -183 -37 -183 -18 0 28 67 147 106 187 43 45 81 56 104 28z
m-1050 -52 c0 -3 -34 -57 -75 -119 -145 -218 -372 -473 -581 -654 -94 -81
-107 -89 -171 -104 -492 -112 -1046 -94 -1538 48 -118 34 -279 89 -302 104 -9
5 -3 32 23 100 51 135 99 312 119 432 9 58 19 110 21 117 2 9 21 6 71 -8 350
-104 774 -156 1168 -146 410 11 790 76 1135 195 127 44 130 45 130 35z m-2599
-834 c370 -132 701 -190 1089 -190 205 0 369 11 510 36 41 7 77 12 78 10 6 -6
-197 -138 -313 -205 -114 -66 -334 -173 -419 -205 -44 -16 -73 -17 -280 -12
-261 7 -412 24 -577 66 -116 29 -259 85 -343 135 -60 35 -59 53 4 155 27 44
69 119 92 166 23 47 43 85 44 85 0 0 52 -18 115 -41z m2883 -100 c67 -17 90
-45 115 -143 11 -47 21 -90 21 -96 0 -19 -83 -101 -124 -122 -22 -11 -68 -23
-101 -25 -49 -4 -68 0 -104 19 -65 34 -86 67 -85 136 2 106 76 200 184 233 36
10 46 10 94 -2z m-3096 -373 c192 -96 494 -163 757 -167 150 -2 154 -10 25
-46 -249 -69 -409 -101 -610 -122 -58 -6 -122 -13 -143 -15 -48 -5 -50 0 -83
192 -24 143 -29 192 -19 192 3 0 36 -15 73 -34z m3985 -1113 c34 -30 67 -113
67 -169 0 -105 -105 -245 -225 -300 -58 -27 -170 -52 -182 -41 -8 9 13 177 32
252 36 137 114 252 187 274 43 13 96 6 121 -16z m-634 -113 c49 -25 87 -70
123 -146 29 -62 58 -175 58 -230 l0 -31 -167 -6 c-91 -4 -206 -7 -254 -7 l-88
0 6 58 c15 168 80 310 168 363 39 25 106 24 154 -1z m-2897 -386 c12 -43 11
-192 -2 -247 -24 -110 -68 -179 -146 -233 -30 -21 -56 -35 -59 -33 -7 7 22
168 51 283 39 154 102 275 137 263 6 -2 15 -17 19 -33z m-508 -58 c64 -38 121
-129 150 -243 16 -62 40 -253 32 -260 -2 -3 -37 -13 -78 -23 -86 -23 -268 -46
-425 -55 l-113 -7 0 25 c0 47 30 193 53 262 90 263 242 383 381 301z m-762
-16 c49 -14 121 -95 149 -168 28 -75 55 -209 64 -316 l7 -87 -63 5 c-35 3
-101 8 -147 11 -115 8 -228 31 -356 72 l-108 35 6 46 c8 62 67 177 123 243 59
70 146 136 203 153 55 18 75 19 122 6z"/>
<path d="M11828 15379 c-152 -22 -306 -99 -424 -212 -123 -116 -197 -243 -236
-406 -17 -73 -20 -115 -19 -284 2 -321 15 -460 51 -569 36 -107 73 -175 141
-261 101 -125 240 -219 399 -269 64 -20 96 -23 220 -23 124 0 156 3 220 23
262 83 454 271 543 532 l32 95 -1 305 c-1 183 -7 337 -14 385 -68 443 -475
748 -912 684z m300 -120 c40 -11 94 -30 120 -44 l47 -24 -40 -1 c-217 -3 -429
-148 -544 -370 -78 -151 -106 -276 -105 -465 1 -162 28 -285 89 -414 99 -208
277 -366 452 -401 32 -6 69 -14 83 -17 l25 -5 -27 -14 c-46 -24 -190 -54 -261
-54 -314 0 -600 220 -682 525 -20 75 -38 400 -33 595 4 126 8 156 32 225 73
214 225 372 428 446 138 51 270 56 416 18z"/>
<path d="M13922 14248 c-41 -44 -62 -96 -62 -158 0 -164 152 -254 206 -124 24
58 -3 167 -70 272 -14 23 -30 42 -34 42 -5 0 -22 -15 -40 -32z"/>
<path d="M11055 13281 c-234 -51 -391 -205 -402 -395 -19 -313 368 -576 737
-502 219 44 367 175 400 354 38 213 -130 434 -395 518 -88 28 -265 41 -340 25z"/>
<path d="M9170 10310 c-174 -32 -364 -152 -457 -288 -118 -172 -110 -416 17
-525 93 -79 229 -122 360 -114 325 19 573 265 558 553 -13 248 -233 421 -478
374z m226 -103 c66 -33 128 -104 155 -176 32 -86 24 -205 -20 -296 -86 -173
-288 -284 -501 -273 -131 7 -249 67 -290 148 -83 162 -16 364 163 496 172 127
366 166 493 101z"/>
<path d="M7766 9229 c-127 -31 -294 -176 -362 -313 -37 -76 -39 -84 -39 -175
0 -79 4 -105 23 -146 82 -177 286 -231 500 -130 100 47 182 127 230 224 35 71
37 80 37 175 0 93 -3 107 -32 168 -72 152 -217 232 -357 197z m149 -83 c53
-23 121 -99 145 -164 32 -82 25 -196 -15 -270 -82 -151 -277 -247 -431 -213
-48 11 -68 22 -105 60 -52 52 -69 96 -69 183 0 76 29 151 88 223 124 154 278
226 387 181z"/>
<path d="M9077 7260 c-107 -27 -210 -111 -255 -208 -36 -77 -37 -198 -2 -287
32 -82 114 -164 195 -195 62 -24 169 -32 232 -18 32 7 34 6 59 -43 34 -68 103
-135 172 -167 49 -23 70 -27 152 -27 82 0 103 4 152 27 191 89 260 319 160
531 -86 183 -219 260 -362 210 -30 -11 -62 -23 -71 -27 -11 -5 -25 8 -52 46
-44 64 -89 101 -163 135 -62 28 -155 38 -217 23z m193 -95 c59 -30 106 -72
129 -117 l23 -43 -46 -47 c-25 -27 -55 -66 -66 -88 -26 -51 -50 -143 -50 -192
0 -32 -4 -40 -26 -48 -38 -15 -113 -12 -174 6 -74 22 -152 100 -174 174 -49
164 22 307 181 366 49 19 157 13 203 -11z m495 -180 c51 -39 109 -132 130
-209 57 -212 -65 -387 -272 -388 -144 -1 -269 118 -281 267 -6 78 17 159 61
217 35 47 139 122 190 138 57 17 132 7 172 -25z"/>
<path d="M8847 6419 c-90 -22 -157 -85 -183 -175 -67 -232 205 -419 397 -271
63 48 103 125 103 201 0 74 -24 126 -84 180 -68 61 -153 85 -233 65z m128 -88
c85 -38 130 -123 106 -202 -40 -133 -208 -174 -303 -73 -84 90 -57 223 57 275
50 23 89 23 140 0z"/>
<path d="M12549 5360 c-145 -24 -253 -128 -266 -254 -4 -43 0 -60 24 -106 24
-46 38 -59 88 -85 50 -26 70 -30 134 -30 58 0 85 5 116 22 91 49 144 137 145
241 0 154 -94 237 -241 212z m126 -100 c28 -26 47 -96 38 -142 -23 -122 -130
-184 -255 -146 -111 33 -130 158 -37 242 81 74 201 96 254 46z"/>
</g>
</svg>
